STARTFONT 2.1
COMMENT
COMMENT Converted from OpenType font "Oxanium-Regular.ttf" by "otf2bdf 3.0".
COMMENT
FONT -FreeType-Oxanium-Medium-R-Normal--21-210-72-72-P-91-ISO10646-1
SIZE 21 72 72
FONTBOUNDINGBOX 34 26 -9 -5
STARTPROPERTIES 19
FOUNDRY "FreeType"
FAMILY_NAME "Oxanium"
WEIGHT_NAME "Medium"
SLANT "R"
SETWIDTH_NAME "Normal"
ADD_STYLE_NAME ""
PIXEL_SIZE 21
POINT_SIZE 210
RESOLUTION_X 72
RESOLUTION_Y 72
SPACING "P"
AVERAGE_WIDTH 91
CHARSET_REGISTRY "ISO10646"
CHARSET_ENCODING "1"
FONT_ASCENT 16
FONT_DESCENT 4
COPYRIGHT "Copyright 2019 The Oxanium Project Authors (https://github.com/sevmeyer/oxanium)"
_OTF_FONTFILE "Oxanium-Regular.ttf"
_OTF_PSNAME "Oxanium-Regular"
ENDPROPERTIES
CHARS 357
STARTCHAR 0000
ENCODING 0
SWIDTH 0 0
DWIDTH 0 0
BBX 0 0 0 0
BITMAP
ENDCHAR
STARTCHAR 000D
ENCODING 13
SWIDTH 238 0
DWIDTH 5 0
BBX 0 0 0 0
BITMAP
ENDCHAR
STARTCHAR 0020
ENCODING 32
SWIDTH 238 0
DWIDTH 5 0
BBX 0 0 0 0
BITMAP
ENDCHAR
STARTCHAR 0021
ENCODING 33
SWIDTH 238 0
DWIDTH 5 0
BBX 2 15 2 0
BITMAP
C0
C0
C0
C0
C0
C0
C0
C0
C0
C0
00
00
C0
C0
C0
ENDCHAR
STARTCHAR 0022
ENCODING 34
SWIDTH 380 0
DWIDTH 8 0
BBX 6 6 1 10
BITMAP
CC
CC
CC
CC
CC
CC
ENDCHAR
STARTCHAR 0023
ENCODING 35
SWIDTH 666 0
DWIDTH 14 0
BBX 12 15 1 0
BITMAP
1080
1080
1080
1080
FFF0
1080
1080
1080
1080
1080
FFF0
1080
1080
1080
1080
ENDCHAR
STARTCHAR 0024
ENCODING 36
SWIDTH 571 0
DWIDTH 12 0
BBX 10 20 1 -3
BITMAP
0C00
0C00
0C00
3F80
7F80
4000
C000
C000
6000
7E00
0F80
00C0
00C0
00C0
00C0
FF80
7F80
0C00
0C00
0C00
ENDCHAR
STARTCHAR 0025
ENCODING 37
SWIDTH 857 0
DWIDTH 18 0
BBX 16 15 1 0
BITMAP
F810
8C30
8C20
8C60
8C40
8CC0
8C9F
8DB1
F931
0331
0231
0631
0431
0C31
081F
ENDCHAR
STARTCHAR 0026
ENCODING 38
SWIDTH 666 0
DWIDTH 14 0
BBX 12 15 1 0
BITMAP
3F80
7000
6000
6000
6000
6000
3000
3FF0
40C0
C0C0
C0C0
C0C0
40C0
60C0
3FC0
ENDCHAR
STARTCHAR 0027
ENCODING 39
SWIDTH 238 0
DWIDTH 5 0
BBX 2 6 1 10
BITMAP
C0
C0
C0
C0
C0
C0
ENDCHAR
STARTCHAR 0028
ENCODING 40
SWIDTH 333 0
DWIDTH 7 0
BBX 4 20 2 -4
BITMAP
20
30
60
60
C0
C0
C0
80
80
80
80
80
80
C0
C0
C0
60
60
30
20
ENDCHAR
STARTCHAR 0029
ENCODING 41
SWIDTH 333 0
DWIDTH 7 0
BBX 5 20 0 -4
BITMAP
C0
60
60
30
30
10
18
18
18
18
18
18
18
18
10
30
30
60
60
C0
ENDCHAR
STARTCHAR 002A
ENCODING 42
SWIDTH 523 0
DWIDTH 11 0
BBX 9 8 1 7
BITMAP
0800
0800
8880
FF80
3C00
1C00
3600
6200
ENDCHAR
STARTCHAR 002B
ENCODING 43
SWIDTH 571 0
DWIDTH 12 0
BBX 10 9 1 3
BITMAP
0C00
0C00
0C00
0C00
FFC0
0C00
0C00
0C00
0C00
ENDCHAR
STARTCHAR 002C
ENCODING 44
SWIDTH 238 0
DWIDTH 5 0
BBX 3 5 1 -2
BITMAP
60
C0
C0
C0
80
ENDCHAR
STARTCHAR 002D
ENCODING 45
SWIDTH 380 0
DWIDTH 8 0
BBX 6 1 1 6
BITMAP
FC
ENDCHAR
STARTCHAR 002E
ENCODING 46
SWIDTH 238 0
DWIDTH 5 0
BBX 2 3 2 0
BITMAP
C0
C0
C0
ENDCHAR
STARTCHAR 002F
ENCODING 47
SWIDTH 380 0
DWIDTH 8 0
BBX 8 17 0 -1
BITMAP
03
02
06
06
04
0C
0C
08
18
18
10
30
20
60
60
40
C0
ENDCHAR
STARTCHAR 0030
ENCODING 48
SWIDTH 571 0
DWIDTH 12 0
BBX 10 15 1 0
BITMAP
3F80
7F80
C0C0
C0C0
C0C0
C0C0
C0C0
C0C0
C0C0
C0C0
C0C0
C0C0
C0C0
7F80
3F80
ENDCHAR
STARTCHAR 0031
ENCODING 49
SWIDTH 571 0
DWIDTH 12 0
BBX 9 15 2 0
BITMAP
7800
7800
0800
0800
0800
0800
0800
0800
0800
0800
0800
0800
0800
FF80
FF80
ENDCHAR
STARTCHAR 0032
ENCODING 50
SWIDTH 571 0
DWIDTH 12 0
BBX 10 15 1 0
BITMAP
7F80
7F80
00C0
00C0
00C0
00C0
0380
3F80
7800
C000
C000
C000
C000
FFC0
FFC0
ENDCHAR
STARTCHAR 0033
ENCODING 51
SWIDTH 571 0
DWIDTH 12 0
BBX 9 15 2 0
BITMAP
FF00
FF00
0180
0180
0180
0180
7F00
7F00
0180
0180
0180
0180
0180
FF00
FF00
ENDCHAR
STARTCHAR 0034
ENCODING 52
SWIDTH 571 0
DWIDTH 12 0
BBX 10 15 1 0
BITMAP
0600
0C00
0C00
0800
1800
1800
30C0
30C0
60C0
60C0
FFC0
FFC0
00C0
00C0
00C0
ENDCHAR
STARTCHAR 0035
ENCODING 53
SWIDTH 571 0
DWIDTH 12 0
BBX 10 15 1 0
BITMAP
FF80
FF80
C000
C000
C000
C000
FF80
FF80
00C0
00C0
00C0
00C0
00C0
FF80
FF80
ENDCHAR
STARTCHAR 0036
ENCODING 54
SWIDTH 571 0
DWIDTH 12 0
BBX 10 15 1 0
BITMAP
3F80
7F80
4000
C000
C000
C000
FF80
FF80
C0C0
C0C0
C0C0
C0C0
C0C0
7F80
3F80
ENDCHAR
STARTCHAR 0037
ENCODING 55
SWIDTH 571 0
DWIDTH 12 0
BBX 10 15 1 0
BITMAP
FFC0
FFC0
00C0
00C0
0180
0180
0300
0300
0600
0600
0C00
0C00
1800
1800
3000
ENDCHAR
STARTCHAR 0038
ENCODING 56
SWIDTH 571 0
DWIDTH 12 0
BBX 10 15 1 0
BITMAP
3F80
7F80
C0C0
C0C0
C0C0
C0C0
7F80
7F80
C0C0
C0C0
C0C0
C0C0
C0C0
7F80
3F80
ENDCHAR
STARTCHAR 0039
ENCODING 57
SWIDTH 571 0
DWIDTH 12 0
BBX 10 15 1 0
BITMAP
3F80
7F80
C0C0
C0C0
C0C0
C0C0
C0C0
7FC0
3FC0
00C0
00C0
00C0
00C0
7F80
7F00
ENDCHAR
STARTCHAR 003A
ENCODING 58
SWIDTH 238 0
DWIDTH 5 0
BBX 2 12 2 0
BITMAP
C0
C0
C0
00
00
00
00
00
00
C0
C0
C0
ENDCHAR
STARTCHAR 003B
ENCODING 59
SWIDTH 238 0
DWIDTH 5 0
BBX 3 14 1 -2
BITMAP
60
60
60
00
00
00
00
00
00
60
C0
C0
C0
80
ENDCHAR
STARTCHAR 003C
ENCODING 60
SWIDTH 571 0
DWIDTH 12 0
BBX 10 11 1 2
BITMAP
0040
01C0
0700
1C00
7000
C000
7000
1C00
0700
01C0
0040
ENDCHAR
STARTCHAR 003D
ENCODING 61
SWIDTH 571 0
DWIDTH 12 0
BBX 10 6 1 4
BITMAP
FFC0
0000
0000
0000
0000
FFC0
ENDCHAR
STARTCHAR 003E
ENCODING 62
SWIDTH 571 0
DWIDTH 12 0
BBX 10 11 1 2
BITMAP
8000
E000
3800
0E00
0380
00C0
0380
0E00
3800
E000
8000
ENDCHAR
STARTCHAR 003F
ENCODING 63
SWIDTH 523 0
DWIDTH 11 0
BBX 8 15 1 0
BITMAP
FE
FF
01
01
01
01
03
1F
1C
10
00
00
30
30
30
ENDCHAR
STARTCHAR 0040
ENCODING 64
SWIDTH 809 0
DWIDTH 17 0
BBX 13 17 2 -2
BITMAP
7FF8
C018
8018
8018
83F8
8618
8418
8418
8418
8418
8418
8618
83F8
8000
8000
C000
7FF0
ENDCHAR
STARTCHAR 0041
ENCODING 65
SWIDTH 619 0
DWIDTH 13 0
BBX 13 15 0 0
BITMAP
0700
0780
0D80
0D80
08C0
18C0
18C0
1060
3060
3FE0
3FE0
6030
6030
6010
C018
ENDCHAR
STARTCHAR 0042
ENCODING 66
SWIDTH 666 0
DWIDTH 14 0
BBX 10 15 2 0
BITMAP
FF80
FF80
C0C0
C0C0
C0C0
C0C0
FF80
FF80
C0C0
C0C0
C0C0
C0C0
C0C0
FFC0
FF80
ENDCHAR
STARTCHAR 0043
ENCODING 67
SWIDTH 619 0
DWIDTH 13 0
BBX 10 15 2 0
BITMAP
7F80
FFC0
C000
8000
8000
8000
8000
8000
8000
8000
8000
8000
C000
FFC0
7F80
ENDCHAR
STARTCHAR 0044
ENCODING 68
SWIDTH 666 0
DWIDTH 14 0
BBX 11 15 2 0
BITMAP
FF00
FFC0
C0C0
C060
C060
C060
C060
C060
C060
C060
C060
C060
C0C0
FFC0
FF00
ENDCHAR
STARTCHAR 0045
ENCODING 69
SWIDTH 571 0
DWIDTH 12 0
BBX 9 15 2 0
BITMAP
FF80
FF80
C000
C000
C000
C000
FF80
FF80
C000
C000
C000
C000
C000
FF80
FF80
ENDCHAR
STARTCHAR 0046
ENCODING 70
SWIDTH 571 0
DWIDTH 12 0
BBX 9 15 2 0
BITMAP
FF80
FF80
C000
C000
C000
C000
C000
FF80
FF80
C000
C000
C000
C000
C000
C000
ENDCHAR
STARTCHAR 0047
ENCODING 71
SWIDTH 666 0
DWIDTH 14 0
BBX 11 15 2 0
BITMAP
7FC0
FFC0
C000
8000
8000
8000
87E0
87E0
8060
8060
8060
8060
C060
FFE0
7FE0
ENDCHAR
STARTCHAR 0048
ENCODING 72
SWIDTH 714 0
DWIDTH 15 0
BBX 11 15 2 0
BITMAP
C060
C060
C060
C060
C060
C060
FFE0
FFE0
C060
C060
C060
C060
C060
C060
C060
ENDCHAR
STARTCHAR 0049
ENCODING 73
SWIDTH 285 0
DWIDTH 6 0
BBX 2 15 2 0
BITMAP
C0
C0
C0
C0
C0
C0
C0
C0
C0
C0
C0
C0
C0
C0
C0
ENDCHAR
STARTCHAR 004A
ENCODING 74
SWIDTH 619 0
DWIDTH 13 0
BBX 10 15 1 0
BITMAP
1FC0
1FC0
00C0
00C0
00C0
00C0
00C0
00C0
00C0
C0C0
C0C0
C0C0
C0C0
7FC0
3F80
ENDCHAR
STARTCHAR 004B
ENCODING 75
SWIDTH 619 0
DWIDTH 13 0
BBX 11 15 2 0
BITMAP
C0C0
C180
C300
C600
CE00
CC00
D800
FC00
E600
C600
C300
C180
C180
C0C0
C0E0
ENDCHAR
STARTCHAR 004C
ENCODING 76
SWIDTH 523 0
DWIDTH 11 0
BBX 9 15 2 0
BITMAP
C000
C000
C000
C000
C000
C000
C000
C000
C000
C000
C000
C000
C000
FF80
FF80
ENDCHAR
STARTCHAR 004D
ENCODING 77
SWIDTH 857 0
DWIDTH 18 0
BBX 14 15 2 0
BITMAP
C00C
E01C
E01C
F03C
F03C
D86C
D86C
CC4C
CCCC
C68C
C78C
C30C
C30C
C00C
C00C
ENDCHAR
STARTCHAR 004E
ENCODING 78
SWIDTH 714 0
DWIDTH 15 0
BBX 11 15 2 0
BITMAP
C060
E060
E060
F060
D860
D860
CC60
C660
C660
C360
C360
C1E0
C0E0
C0E0
C060
ENDCHAR
STARTCHAR 004F
ENCODING 79
SWIDTH 714 0
DWIDTH 15 0
BBX 11 15 2 0
BITMAP
7FC0
FFE0
C060
8060
8060
8060
8060
8060
8060
8060
8060
8060
C060
FFE0
7FC0
ENDCHAR
STARTCHAR 0050
ENCODING 80
SWIDTH 619 0
DWIDTH 13 0
BBX 10 15 2 0
BITMAP
FF80
FFC0
C0C0
C0C0
C0C0
C0C0
C0C0
C0C0
FF80
FF00
C000
C000
C000
C000
C000
ENDCHAR
STARTCHAR 0051
ENCODING 81
SWIDTH 714 0
DWIDTH 15 0
BBX 11 18 2 -3
BITMAP
7FC0
FFE0
C060
8060
8060
8060
8060
8060
8060
8060
8060
8060
C060
FFE0
7FC0
0180
0180
00C0
ENDCHAR
STARTCHAR 0052
ENCODING 82
SWIDTH 619 0
DWIDTH 13 0
BBX 10 15 2 0
BITMAP
FF80
FFC0
C0C0
C0C0
C0C0
C0C0
C0C0
FFC0
FF80
C300
C300
C180
C180
C0C0
C0C0
ENDCHAR
STARTCHAR 0053
ENCODING 83
SWIDTH 571 0
DWIDTH 12 0
BBX 10 15 1 0
BITMAP
7F80
7FC0
C000
C000
C000
C000
7800
3F80
01C0
00C0
00C0
00C0
00C0
FFC0
7F80
ENDCHAR
STARTCHAR 0054
ENCODING 84
SWIDTH 571 0
DWIDTH 12 0
BBX 12 15 0 0
BITMAP
FFF0
FFF0
0600
0600
0600
0600
0600
0600
0600
0600
0600
0600
0600
0600
0600
ENDCHAR
STARTCHAR 0055
ENCODING 85
SWIDTH 666 0
DWIDTH 14 0
BBX 11 15 2 0
BITMAP
C060
C060
C060
C060
C060
C060
C060
C060
C060
C060
C060
C060
C060
FFC0
7F80
ENDCHAR
STARTCHAR 0056
ENCODING 86
SWIDTH 619 0
DWIDTH 13 0
BBX 13 15 0 0
BITMAP
C018
6030
6030
6030
3060
3060
3060
1040
18C0
18C0
0880
0D80
0D80
0700
0700
ENDCHAR
STARTCHAR 0057
ENCODING 87
SWIDTH 904 0
DWIDTH 19 0
BBX 18 15 1 0
BITMAP
8000C0
C00080
C0C180
C1C180
41C180
616180
636100
636300
632300
223300
363200
361600
361600
1C1E00
1C1C00
ENDCHAR
STARTCHAR 0058
ENCODING 88
SWIDTH 619 0
DWIDTH 13 0
BBX 11 15 1 0
BITMAP
C060
60C0
60C0
3180
1B00
1B00
0E00
0E00
0E00
1B00
3180
3180
60C0
C0C0
C060
ENDCHAR
STARTCHAR 0059
ENCODING 89
SWIDTH 571 0
DWIDTH 12 0
BBX 12 15 0 0
BITMAP
C030
6060
2060
30C0
10C0
1980
0D80
0F00
0600
0600
0600
0600
0600
0600
0600
ENDCHAR
STARTCHAR 005A
ENCODING 90
SWIDTH 619 0
DWIDTH 13 0
BBX 11 15 1 0
BITMAP
FFC0
FFC0
00C0
0180
0300
0300
0600
0C00
1C00
1800
3000
7000
6000
FFE0
FFE0
ENDCHAR
STARTCHAR 005B
ENCODING 91
SWIDTH 333 0
DWIDTH 7 0
BBX 5 20 2 -4
BITMAP
F8
C0
C0
C0
C0
C0
C0
C0
C0
C0
C0
C0
C0
C0
C0
C0
C0
C0
C0
F8
ENDCHAR
STARTCHAR 005C
ENCODING 92
SWIDTH 380 0
DWIDTH 8 0
BBX 8 17 0 -1
BITMAP
C0
40
60
60
20
30
10
18
18
08
0C
0C
04
06
06
02
03
ENDCHAR
STARTCHAR 005D
ENCODING 93
SWIDTH 333 0
DWIDTH 7 0
BBX 4 20 1 -4
BITMAP
F0
10
10
10
10
10
10
10
10
10
10
10
10
10
10
10
10
10
10
F0
ENDCHAR
STARTCHAR 005E
ENCODING 94
SWIDTH 523 0
DWIDTH 11 0
BBX 10 8 1 7
BITMAP
0C00
1C00
3600
3200
6300
6180
C180
80C0
ENDCHAR
STARTCHAR 005F
ENCODING 95
SWIDTH 571 0
DWIDTH 12 0
BBX 10 1 1 -5
BITMAP
FFC0
ENDCHAR
STARTCHAR 0060
ENCODING 96
SWIDTH 523 0
DWIDTH 11 0
BBX 4 4 3 13
BITMAP
80
C0
60
30
ENDCHAR
STARTCHAR 0061
ENCODING 97
SWIDTH 523 0
DWIDTH 11 0
BBX 9 12 1 0
BITMAP
7F00
0300
0180
0180
0180
7F80
E180
C180
C180
C180
E180
7F80
ENDCHAR
STARTCHAR 0062
ENCODING 98
SWIDTH 571 0
DWIDTH 12 0
BBX 9 16 2 0
BITMAP
8000
8000
8000
8000
FE00
8300
8180
8180
8180
8180
8180
8180
8180
8180
8300
FE00
ENDCHAR
STARTCHAR 0063
ENCODING 99
SWIDTH 523 0
DWIDTH 11 0
BBX 8 12 2 0
BITMAP
7E
C1
80
80
80
80
80
80
80
80
C0
7F
ENDCHAR
STARTCHAR 0064
ENCODING 100
SWIDTH 571 0
DWIDTH 12 0
BBX 9 16 2 0
BITMAP
0180
0180
0180
0180
7F80
C180
8180
8180
8180
8180
8180
8180
8180
8180
C180
7F80
ENDCHAR
STARTCHAR 0065
ENCODING 101
SWIDTH 571 0
DWIDTH 12 0
BBX 9 12 2 0
BITMAP
7E00
C300
8100
8180
8180
FF80
8000
8000
8000
8000
C000
7F00
ENDCHAR
STARTCHAR 0066
ENCODING 102
SWIDTH 380 0
DWIDTH 8 0
BBX 6 16 2 0
BITMAP
78
C4
80
80
F8
80
80
80
80
80
80
80
80
80
80
80
ENDCHAR
STARTCHAR 0067
ENCODING 103
SWIDTH 571 0
DWIDTH 12 0
BBX 9 17 2 -5
BITMAP
7F80
C180
8180
8180
8180
8180
8180
8180
8180
8180
C180
7F80
0180
0180
0100
0300
FE00
ENDCHAR
STARTCHAR 0068
ENCODING 104
SWIDTH 571 0
DWIDTH 12 0
BBX 9 16 2 0
BITMAP
8000
8000
8000
8000
FE00
8300
8180
8180
8180
8180
8180
8180
8180
8180
8180
8180
ENDCHAR
STARTCHAR 0069
ENCODING 105
SWIDTH 238 0
DWIDTH 5 0
BBX 1 16 2 0
BITMAP
80
80
00
00
80
80
80
80
80
80
80
80
80
80
80
80
ENDCHAR
STARTCHAR 006A
ENCODING 106
SWIDTH 238 0
DWIDTH 5 0
BBX 3 21 0 -5
BITMAP
20
20
00
00
20
20
20
20
20
20
20
20
20
20
20
20
20
20
20
E0
C0
ENDCHAR
STARTCHAR 006B
ENCODING 107
SWIDTH 523 0
DWIDTH 11 0
BBX 9 16 2 0
BITMAP
8000
8000
8000
8000
8300
8600
8C00
8C00
9800
B800
F800
CC00
8400
8600
8300
8380
ENDCHAR
STARTCHAR 006C
ENCODING 108
SWIDTH 238 0
DWIDTH 5 0
BBX 3 16 2 0
BITMAP
80
80
80
80
80
80
80
80
80
80
80
80
80
80
C0
60
ENDCHAR
STARTCHAR 006D
ENCODING 109
SWIDTH 904 0
DWIDTH 19 0
BBX 15 12 2 0
BITMAP
FFFC
810E
8106
8102
8102
8102
8102
8102
8102
8102
8102
8102
ENDCHAR
STARTCHAR 006E
ENCODING 110
SWIDTH 571 0
DWIDTH 12 0
BBX 9 12 2 0
BITMAP
FE00
8300
8180
8180
8180
8180
8180
8180
8180
8180
8180
8180
ENDCHAR
STARTCHAR 006F
ENCODING 111
SWIDTH 571 0
DWIDTH 12 0
BBX 9 12 2 0
BITMAP
7F00
C300
8180
8180
8180
8180
8180
8180
8180
8180
C300
7F00
ENDCHAR
STARTCHAR 0070
ENCODING 112
SWIDTH 571 0
DWIDTH 12 0
BBX 9 17 2 -5
BITMAP
FE00
8300
8180
8180
8180
8180
8180
8180
8180
8180
8300
FE00
8000
8000
8000
8000
8000
ENDCHAR
STARTCHAR 0071
ENCODING 113
SWIDTH 571 0
DWIDTH 12 0
BBX 9 17 2 -5
BITMAP
7F80
C180
8180
8180
8180
8180
8180
8180
8180
8180
C180
7F80
0180
0180
0180
0180
0180
ENDCHAR
STARTCHAR 0072
ENCODING 114
SWIDTH 380 0
DWIDTH 8 0
BBX 5 12 2 0
BITMAP
F8
C0
80
80
80
80
80
80
80
80
80
80
ENDCHAR
STARTCHAR 0073
ENCODING 115
SWIDTH 523 0
DWIDTH 11 0
BBX 8 12 1 0
BITMAP
7F
60
C0
C0
C0
7C
0F
03
01
03
07
FE
ENDCHAR
STARTCHAR 0074
ENCODING 116
SWIDTH 380 0
DWIDTH 8 0
BBX 5 15 2 0
BITMAP
80
80
80
F8
80
80
80
80
80
80
80
80
80
C0
78
ENDCHAR
STARTCHAR 0075
ENCODING 117
SWIDTH 571 0
DWIDTH 12 0
BBX 9 12 2 0
BITMAP
8180
8180
8180
8180
8180
8180
8180
8180
8180
8180
C180
7F80
ENDCHAR
STARTCHAR 0076
ENCODING 118
SWIDTH 523 0
DWIDTH 11 0
BBX 11 12 0 0
BITMAP
C060
60C0
60C0
60C0
2180
3180
3180
1100
1B00
1B00
0A00
0E00
ENDCHAR
STARTCHAR 0077
ENCODING 119
SWIDTH 761 0
DWIDTH 16 0
BBX 16 12 0 0
BITMAP
C183
41C3
61C3
6342
6346
2266
2266
3624
3624
143C
143C
1C1C
ENDCHAR
STARTCHAR 0078
ENCODING 120
SWIDTH 523 0
DWIDTH 11 0
BBX 9 12 1 0
BITMAP
C180
4300
6300
3600
1C00
1C00
1C00
3600
3600
6300
C180
C180
ENDCHAR
STARTCHAR 0079
ENCODING 121
SWIDTH 523 0
DWIDTH 11 0
BBX 11 17 0 -5
BITMAP
C060
60C0
60C0
60C0
2180
3180
3180
1100
1B00
1B00
0A00
0E00
0600
0400
0C00
0C00
0C00
ENDCHAR
STARTCHAR 007A
ENCODING 122
SWIDTH 523 0
DWIDTH 11 0
BBX 9 12 1 0
BITMAP
FF00
0300
0300
0600
0C00
0C00
1800
3000
3000
6000
C000
FF80
ENDCHAR
STARTCHAR 007B
ENCODING 123
SWIDTH 380 0
DWIDTH 8 0
BBX 6 20 1 -4
BITMAP
1C
38
30
30
30
30
30
30
60
C0
C0
60
30
30
30
30
30
30
38
1C
ENDCHAR
STARTCHAR 007C
ENCODING 124
SWIDTH 285 0
DWIDTH 6 0
BBX 2 21 2 -5
BITMAP
C0
C0
C0
C0
C0
C0
C0
C0
C0
C0
C0
C0
C0
C0
C0
C0
C0
C0
C0
C0
C0
ENDCHAR
STARTCHAR 007D
ENCODING 125
SWIDTH 380 0
DWIDTH 8 0
BBX 6 20 1 -4
BITMAP
E0
70
30
30
30
30
30
30
18
0C
0C
18
30
30
30
30
30
30
70
E0
ENDCHAR
STARTCHAR 007E
ENCODING 126
SWIDTH 571 0
DWIDTH 12 0
BBX 10 4 1 5
BITMAP
3840
7CC0
C780
4700
ENDCHAR
STARTCHAR 00A0
ENCODING 160
SWIDTH 238 0
DWIDTH 5 0
BBX 0 0 0 0
BITMAP
ENDCHAR
STARTCHAR 00A1
ENCODING 161
SWIDTH 238 0
DWIDTH 5 0
BBX 2 15 2 -3
BITMAP
C0
C0
C0
00
00
C0
C0
C0
C0
C0
C0
C0
C0
C0
C0
ENDCHAR
STARTCHAR 00A2
ENCODING 162
SWIDTH 571 0
DWIDTH 12 0
BBX 8 18 2 -3
BITMAP
08
08
08
7F
E0
C0
C0
C0
C0
C0
C0
C0
C0
E0
7F
08
08
08
ENDCHAR
STARTCHAR 00A3
ENCODING 163
SWIDTH 571 0
DWIDTH 12 0
BBX 10 15 1 0
BITMAP
1F80
1FC0
3000
3000
3000
3000
3000
FF00
3000
3000
3000
3000
3000
FFC0
FFC0
ENDCHAR
STARTCHAR 00A4
ENCODING 164
SWIDTH 571 0
DWIDTH 12 0
BBX 10 11 1 2
BITMAP
4040
C0C0
7F80
2100
2100
2100
2100
2100
7F80
C0C0
4040
ENDCHAR
STARTCHAR 00A5
ENCODING 165
SWIDTH 571 0
DWIDTH 12 0
BBX 11 15 1 0
BITMAP
C060
C0C0
6180
6180
3300
3300
1E00
0E00
7F80
0C00
7F80
0C00
0C00
0C00
0C00
ENDCHAR
STARTCHAR 00A6
ENCODING 166
SWIDTH 285 0
DWIDTH 6 0
BBX 2 21 2 -5
BITMAP
C0
C0
C0
C0
C0
C0
C0
C0
00
00
00
00
00
C0
C0
C0
C0
C0
C0
C0
C0
ENDCHAR
STARTCHAR 00A7
ENCODING 167
SWIDTH 523 0
DWIDTH 11 0
BBX 8 17 2 -2
BITMAP
7E
C0
80
80
C0
FC
86
83
83
83
E3
7E
06
03
03
06
FE
ENDCHAR
STARTCHAR 00A8
ENCODING 168
SWIDTH 523 0
DWIDTH 11 0
BBX 5 2 3 14
BITMAP
98
98
ENDCHAR
STARTCHAR 00A9
ENCODING 169
SWIDTH 857 0
DWIDTH 18 0
BBX 14 14 2 0
BITMAP
FFFC
8004
8004
8FC4
9804
9804
9804
9804
9804
9804
8FC4
8004
8004
FFFC
ENDCHAR
STARTCHAR 00AA
ENCODING 170
SWIDTH 380 0
DWIDTH 8 0
BBX 6 9 1 6
BITMAP
FC
04
04
04
FC
84
84
84
FC
ENDCHAR
STARTCHAR 00AB
ENCODING 171
SWIDTH 523 0
DWIDTH 11 0
BBX 9 9 1 2
BITMAP
1180
3300
6600
C400
CC00
C400
6600
3300
1180
ENDCHAR
STARTCHAR 00AC
ENCODING 172
SWIDTH 571 0
DWIDTH 12 0
BBX 10 6 1 3
BITMAP
FFC0
00C0
00C0
00C0
00C0
00C0
ENDCHAR
STARTCHAR 00AD
ENCODING 173
SWIDTH 380 0
DWIDTH 8 0
BBX 6 1 1 6
BITMAP
FC
ENDCHAR
STARTCHAR 00AE
ENCODING 174
SWIDTH 857 0
DWIDTH 18 0
BBX 14 14 2 0
BITMAP
FFFC
8004
8004
8F84
88C4
8844
88C4
8F84
8884
88C4
8844
8004
8004
FFFC
ENDCHAR
STARTCHAR 00AF
ENCODING 175
SWIDTH 523 0
DWIDTH 11 0
BBX 5 1 3 14
BITMAP
F8
ENDCHAR
STARTCHAR 00B0
ENCODING 176
SWIDTH 428 0
DWIDTH 9 0
BBX 6 7 1 8
BITMAP
7C
C4
C4
C4
C4
C4
7C
ENDCHAR
STARTCHAR 00B1
ENCODING 177
SWIDTH 571 0
DWIDTH 12 0
BBX 10 12 1 0
BITMAP
0C00
0C00
0C00
0C00
FFC0
0C00
0C00
0C00
0C00
0000
0000
FFC0
ENDCHAR
STARTCHAR 00B2
ENCODING 178
SWIDTH 380 0
DWIDTH 8 0
BBX 6 9 1 6
BITMAP
F8
0C
0C
0C
78
C0
80
80
FC
ENDCHAR
STARTCHAR 00B3
ENCODING 179
SWIDTH 380 0
DWIDTH 8 0
BBX 6 9 1 6
BITMAP
F8
0C
0C
0C
78
0C
0C
0C
F8
ENDCHAR
STARTCHAR 00B4
ENCODING 180
SWIDTH 523 0
DWIDTH 11 0
BBX 4 4 4 13
BITMAP
20
70
C0
80
ENDCHAR
STARTCHAR 00B5
ENCODING 181
SWIDTH 571 0
DWIDTH 12 0
BBX 9 17 2 -5
BITMAP
8180
8180
8180
8180
8180
8180
8180
8180
8180
8180
8300
FE00
8000
8000
8000
8000
8000
ENDCHAR
STARTCHAR 00B6
ENCODING 182
SWIDTH 571 0
DWIDTH 12 0
BBX 9 19 1 -4
BITMAP
3D80
7D80
FD80
FD80
FD80
FD80
FD80
7D80
3D80
0180
0180
0180
0180
0180
0180
0180
0180
0180
0180
ENDCHAR
STARTCHAR 00B7
ENCODING 183
SWIDTH 238 0
DWIDTH 5 0
BBX 2 3 2 5
BITMAP
C0
C0
C0
ENDCHAR
STARTCHAR 00B8
ENCODING 184
SWIDTH 523 0
DWIDTH 11 0
BBX 4 5 3 -4
BITMAP
10
10
10
10
F0
ENDCHAR
STARTCHAR 00B9
ENCODING 185
SWIDTH 380 0
DWIDTH 8 0
BBX 6 9 1 6
BITMAP
70
30
30
30
30
30
30
30
FC
ENDCHAR
STARTCHAR 00BA
ENCODING 186
SWIDTH 428 0
DWIDTH 9 0
BBX 7 9 1 6
BITMAP
7C
C2
82
82
82
82
82
C2
7C
ENDCHAR
STARTCHAR 00BB
ENCODING 187
SWIDTH 523 0
DWIDTH 11 0
BBX 9 9 1 2
BITMAP
8C00
C400
6600
3300
1980
3300
6600
C400
8C00
ENDCHAR
STARTCHAR 00BC
ENCODING 188
SWIDTH 857 0
DWIDTH 18 0
BBX 16 15 1 0
BITMAP
7018
3010
3030
3020
3060
3040
30CC
3088
FD88
011B
0313
0233
063F
0403
0C03
ENDCHAR
STARTCHAR 00BD
ENCODING 189
SWIDTH 904 0
DWIDTH 19 0
BBX 17 15 1 0
BITMAP
701800
301000
303000
302000
306000
304000
30DF00
308180
FD8080
010180
030F00
021800
061000
041000
0C1F80
ENDCHAR
STARTCHAR 00BE
ENCODING 190
SWIDTH 809 0
DWIDTH 17 0
BBX 15 15 1 0
BITMAP
F810
0C30
0C20
0C60
7840
0CC0
0C8C
0D88
F918
0312
0232
0622
047E
0C02
0802
ENDCHAR
STARTCHAR 00BF
ENCODING 191
SWIDTH 476 0
DWIDTH 10 0
BBX 9 15 1 -3
BITMAP
0C00
0C00
0C00
0000
0000
0C00
3C00
7C00
C000
C000
C000
C000
C000
FF80
7F00
ENDCHAR
STARTCHAR 00C0
ENCODING 192
SWIDTH 619 0
DWIDTH 13 0
BBX 13 20 0 0
BITMAP
0400
0C00
0200
0100
0000
0700
0780
0D80
0D80
08C0
18C0
18C0
1060
3060
3FE0
3FE0
6030
6030
6010
C018
ENDCHAR
STARTCHAR 00C1
ENCODING 193
SWIDTH 619 0
DWIDTH 13 0
BBX 13 20 0 0
BITMAP
0080
0180
0300
0600
0000
0700
0780
0D80
0D80
08C0
18C0
18C0
1060
3060
3FE0
3FE0
6030
6030
6010
C018
ENDCHAR
STARTCHAR 00C2
ENCODING 194
SWIDTH 619 0
DWIDTH 13 0
BBX 13 20 0 0
BITMAP
0200
0700
0D80
08C0
0000
0700
0780
0D80
0D80
08C0
18C0
18C0
1060
3060
3FE0
3FE0
6030
6030
6010
C018
ENDCHAR
STARTCHAR 00C3
ENCODING 195
SWIDTH 619 0
DWIDTH 13 0
BBX 13 19 0 0
BITMAP
0640
0A80
1980
0000
0700
0780
0D80
0D80
08C0
18C0
18C0
1060
3060
3FE0
3FE0
6030
6030
6010
C018
ENDCHAR
STARTCHAR 00C4
ENCODING 196
SWIDTH 619 0
DWIDTH 13 0
BBX 13 19 0 0
BITMAP
0C80
0C80
0000
0000
0700
0780
0D80
0D80
08C0
18C0
18C0
1060
3060
3FE0
3FE0
6030
6030
6010
C018
ENDCHAR
STARTCHAR 00C5
ENCODING 197
SWIDTH 619 0
DWIDTH 13 0
BBX 13 20 0 0
BITMAP
0780
0C80
0C80
0780
0000
0700
0780
0D80
0D80
08C0
18C0
18C0
1060
3060
3FE0
3FE0
6030
6030
6010
C018
ENDCHAR
STARTCHAR 00C6
ENCODING 198
SWIDTH 904 0
DWIDTH 19 0
BBX 18 15 0 0
BITMAP
07FFC0
07FFC0
0C6000
0C6000
086000
186000
187F80
107F80
306000
3FE000
3FE000
606000
606000
607FC0
C07FC0
ENDCHAR
STARTCHAR 00C7
ENCODING 199
SWIDTH 619 0
DWIDTH 13 0
BBX 10 19 2 -4
BITMAP
7F80
FFC0
C000
8000
8000
8000
8000
8000
8000
8000
8000
8000
C000
FFC0
7F80
0200
0200
0200
1E00
ENDCHAR
STARTCHAR 00C8
ENCODING 200
SWIDTH 571 0
DWIDTH 12 0
BBX 9 20 2 0
BITMAP
1000
3800
0800
0400
0000
FF80
FF80
C000
C000
C000
C000
FF80
FF80
C000
C000
C000
C000
C000
FF80
FF80
ENDCHAR
STARTCHAR 00C9
ENCODING 201
SWIDTH 571 0
DWIDTH 12 0
BBX 9 20 2 0
BITMAP
0200
0600
0C00
1800
0000
FF80
FF80
C000
C000
C000
C000
FF80
FF80
C000
C000
C000
C000
C000
FF80
FF80
ENDCHAR
STARTCHAR 00CA
ENCODING 202
SWIDTH 571 0
DWIDTH 12 0
BBX 9 20 2 0
BITMAP
0800
1C00
3600
2300
0000
FF80
FF80
C000
C000
C000
C000
FF80
FF80
C000
C000
C000
C000
C000
FF80
FF80
ENDCHAR
STARTCHAR 00CB
ENCODING 203
SWIDTH 571 0
DWIDTH 12 0
BBX 9 19 2 0
BITMAP
3200
3200
0000
0000
FF80
FF80
C000
C000
C000
C000
FF80
FF80
C000
C000
C000
C000
C000
FF80
FF80
ENDCHAR
STARTCHAR 00CC
ENCODING 204
SWIDTH 285 0
DWIDTH 6 0
BBX 4 20 0 0
BITMAP
40
E0
30
10
00
30
30
30
30
30
30
30
30
30
30
30
30
30
30
30
ENDCHAR
STARTCHAR 00CD
ENCODING 205
SWIDTH 285 0
DWIDTH 6 0
BBX 4 20 1 0
BITMAP
10
30
60
C0
00
60
60
60
60
60
60
60
60
60
60
60
60
60
60
60
ENDCHAR
STARTCHAR 00CE
ENCODING 206
SWIDTH 285 0
DWIDTH 6 0
BBX 6 20 0 0
BITMAP
20
70
D8
8C
00
30
30
30
30
30
30
30
30
30
30
30
30
30
30
30
ENDCHAR
STARTCHAR 00CF
ENCODING 207
SWIDTH 285 0
DWIDTH 6 0
BBX 5 19 0 0
BITMAP
C8
C8
00
00
30
30
30
30
30
30
30
30
30
30
30
30
30
30
30
ENDCHAR
STARTCHAR 00D0
ENCODING 208
SWIDTH 666 0
DWIDTH 14 0
BBX 13 15 0 0
BITMAP
3FE0
3FF0
3018
3018
3018
3018
3018
FF18
3018
3018
3018
3018
3018
3FF0
3FE0
ENDCHAR
STARTCHAR 00D1
ENCODING 209
SWIDTH 714 0
DWIDTH 15 0
BBX 11 19 2 0
BITMAP
0C80
1500
3300
0000
C060
E060
E060
F060
D860
D860
CC60
C660
C660
C360
C360
C1E0
C0E0
C0E0
C060
ENDCHAR
STARTCHAR 00D2
ENCODING 210
SWIDTH 714 0
DWIDTH 15 0
BBX 11 20 2 0
BITMAP
1000
1800
0C00
0600
0000
7FC0
FFE0
C060
8060
8060
8060
8060
8060
8060
8060
8060
8060
C060
FFE0
7FC0
ENDCHAR
STARTCHAR 00D3
ENCODING 211
SWIDTH 714 0
DWIDTH 15 0
BBX 11 20 2 0
BITMAP
0200
0700
0400
0800
0000
7FC0
FFE0
C060
8060
8060
8060
8060
8060
8060
8060
8060
8060
C060
FFE0
7FC0
ENDCHAR
STARTCHAR 00D4
ENCODING 212
SWIDTH 714 0
DWIDTH 15 0
BBX 11 20 2 0
BITMAP
0400
0E00
1B00
3100
0000
7FC0
FFE0
C060
8060
8060
8060
8060
8060
8060
8060
8060
8060
C060
FFE0
7FC0
ENDCHAR
STARTCHAR 00D5
ENCODING 213
SWIDTH 714 0
DWIDTH 15 0
BBX 11 19 2 0
BITMAP
1980
1500
2600
0000
7FC0
FFE0
C060
8060
8060
8060
8060
8060
8060
8060
8060
8060
C060
FFE0
7FC0
ENDCHAR
STARTCHAR 00D6
ENCODING 214
SWIDTH 714 0
DWIDTH 15 0
BBX 11 19 2 0
BITMAP
1300
1300
0000
0000
7FC0
FFE0
C060
8060
8060
8060
8060
8060
8060
8060
8060
8060
C060
FFE0
7FC0
ENDCHAR
STARTCHAR 00D7
ENCODING 215
SWIDTH 571 0
DWIDTH 12 0
BBX 8 9 2 3
BITMAP
81
C3
66
3C
18
3C
66
C3
81
ENDCHAR
STARTCHAR 00D8
ENCODING 216
SWIDTH 714 0
DWIDTH 15 0
BBX 11 15 2 0
BITMAP
7FC0
FFE0
C060
8060
80E0
8160
8660
8C60
9860
B060
E060
C060
C060
FFE0
7FC0
ENDCHAR
STARTCHAR 00D9
ENCODING 217
SWIDTH 666 0
DWIDTH 14 0
BBX 11 20 2 0
BITMAP
1000
1800
0C00
0600
0000
C060
C060
C060
C060
C060
C060
C060
C060
C060
C060
C060
C060
C060
FFC0
7F80
ENDCHAR
STARTCHAR 00DA
ENCODING 218
SWIDTH 666 0
DWIDTH 14 0
BBX 11 20 2 0
BITMAP
0200
0700
0C00
0800
0000
C060
C060
C060
C060
C060
C060
C060
C060
C060
C060
C060
C060
C060
FFC0
7F80
ENDCHAR
STARTCHAR 00DB
ENCODING 219
SWIDTH 666 0
DWIDTH 14 0
BBX 11 20 2 0
BITMAP
0400
0E00
1B00
3100
0000
C060
C060
C060
C060
C060
C060
C060
C060
C060
C060
C060
C060
C060
FFC0
7F80
ENDCHAR
STARTCHAR 00DC
ENCODING 220
SWIDTH 666 0
DWIDTH 14 0
BBX 11 19 2 0
BITMAP
1300
1300
0000
0000
C060
C060
C060
C060
C060
C060
C060
C060
C060
C060
C060
C060
C060
FFC0
7F80
ENDCHAR
STARTCHAR 00DD
ENCODING 221
SWIDTH 571 0
DWIDTH 12 0
BBX 12 20 0 0
BITMAP
0100
0380
0600
0400
0000
C030
6060
2060
30C0
10C0
1980
0D80
0F00
0600
0600
0600
0600
0600
0600
0600
ENDCHAR
STARTCHAR 00DE
ENCODING 222
SWIDTH 619 0
DWIDTH 13 0
BBX 10 15 2 0
BITMAP
C000
C000
FF00
FF80
C0C0
C0C0
C0C0
C0C0
C0C0
C0C0
FFC0
FF80
C000
C000
C000
ENDCHAR
STARTCHAR 00DF
ENCODING 223
SWIDTH 619 0
DWIDTH 13 0
BBX 9 16 2 0
BITMAP
7F00
C300
8180
8180
8180
8180
8100
9F00
8380
8180
8180
8180
8180
8180
8380
9F00
ENDCHAR
STARTCHAR 00E0
ENCODING 224
SWIDTH 523 0
DWIDTH 11 0
BBX 9 17 1 0
BITMAP
1000
3800
0800
0400
0000
7F00
0300
0180
0180
0180
7F80
E180
C180
C180
C180
E180
7F80
ENDCHAR
STARTCHAR 00E1
ENCODING 225
SWIDTH 523 0
DWIDTH 11 0
BBX 9 17 1 0
BITMAP
0200
0600
0C00
1800
0000
7F00
0300
0180
0180
0180
7F80
E180
C180
C180
C180
E180
7F80
ENDCHAR
STARTCHAR 00E2
ENCODING 226
SWIDTH 523 0
DWIDTH 11 0
BBX 9 17 1 0
BITMAP
0800
1C00
3600
2300
0000
7F00
0300
0180
0180
0180
7F80
E180
C180
C180
C180
E180
7F80
ENDCHAR
STARTCHAR 00E3
ENCODING 227
SWIDTH 523 0
DWIDTH 11 0
BBX 9 16 1 0
BITMAP
1900
2B00
6600
0000
7F00
0300
0180
0180
0180
7F80
E180
C180
C180
C180
E180
7F80
ENDCHAR
STARTCHAR 00E4
ENCODING 228
SWIDTH 523 0
DWIDTH 11 0
BBX 9 16 1 0
BITMAP
3200
3200
0000
0000
7F00
0300
0180
0180
0180
7F80
E180
C180
C180
C180
E180
7F80
ENDCHAR
STARTCHAR 00E5
ENCODING 229
SWIDTH 523 0
DWIDTH 11 0
BBX 9 17 1 0
BITMAP
1E00
1200
1200
1E00
0000
7F00
0300
0180
0180
0180
7F80
E180
C180
C180
C180
E180
7F80
ENDCHAR
STARTCHAR 00E6
ENCODING 230
SWIDTH 857 0
DWIDTH 18 0
BBX 16 12 1 0
BITMAP
7EFE
03C7
0183
0183
0183
7FFF
E180
C180
C180
C180
E3C0
7EFE
ENDCHAR
STARTCHAR 00E7
ENCODING 231
SWIDTH 523 0
DWIDTH 11 0
BBX 8 16 2 -4
BITMAP
7E
C1
80
80
80
80
80
80
80
80
C0
7F
0C
0C
0C
38
ENDCHAR
STARTCHAR 00E8
ENCODING 232
SWIDTH 571 0
DWIDTH 12 0
BBX 9 17 2 0
BITMAP
2000
3000
1800
0800
0000
7E00
C300
8100
8180
8180
FF80
8000
8000
8000
8000
C000
7F00
ENDCHAR
STARTCHAR 00E9
ENCODING 233
SWIDTH 571 0
DWIDTH 12 0
BBX 9 17 2 0
BITMAP
0400
0C00
1800
1000
0000
7E00
C300
8100
8180
8180
FF80
8000
8000
8000
8000
C000
7F00
ENDCHAR
STARTCHAR 00EA
ENCODING 234
SWIDTH 571 0
DWIDTH 12 0
BBX 9 17 2 0
BITMAP
0800
1800
2400
4200
0000
7E00
C300
8100
8180
8180
FF80
8000
8000
8000
8000
C000
7F00
ENDCHAR
STARTCHAR 00EB
ENCODING 235
SWIDTH 571 0
DWIDTH 12 0
BBX 9 16 2 0
BITMAP
6600
6600
0000
0000
7E00
C300
8100
8180
8180
FF80
8000
8000
8000
8000
C000
7F00
ENDCHAR
STARTCHAR 00EC
ENCODING 236
SWIDTH 238 0
DWIDTH 5 0
BBX 4 17 0 0
BITMAP
40
C0
20
30
00
20
20
20
20
20
20
20
20
20
20
20
20
ENDCHAR
STARTCHAR 00ED
ENCODING 237
SWIDTH 238 0
DWIDTH 5 0
BBX 4 17 1 0
BITMAP
20
30
60
C0
00
40
40
40
40
40
40
40
40
40
40
40
40
ENDCHAR
STARTCHAR 00EE
ENCODING 238
SWIDTH 238 0
DWIDTH 5 0
BBX 5 17 0 0
BITMAP
20
70
D8
88
00
20
20
20
20
20
20
20
20
20
20
20
20
ENDCHAR
STARTCHAR 00EF
ENCODING 239
SWIDTH 238 0
DWIDTH 5 0
BBX 5 16 0 0
BITMAP
88
88
00
00
20
20
20
20
20
20
20
20
20
20
20
20
ENDCHAR
STARTCHAR 00F0
ENCODING 240
SWIDTH 571 0
DWIDTH 12 0
BBX 9 16 2 0
BITMAP
1800
0D00
0F80
1E00
3600
0300
0100
FF80
8180
8180
8180
8180
8180
8180
C300
7F00
ENDCHAR
STARTCHAR 00F1
ENCODING 241
SWIDTH 571 0
DWIDTH 12 0
BBX 9 16 2 0
BITMAP
3200
6A00
4C00
0000
FE00
8300
8180
8180
8180
8180
8180
8180
8180
8180
8180
8180
ENDCHAR
STARTCHAR 00F2
ENCODING 242
SWIDTH 571 0
DWIDTH 12 0
BBX 9 17 2 0
BITMAP
2000
3000
1800
0800
0000
7F00
C300
8180
8180
8180
8180
8180
8180
8180
8180
C300
7F00
ENDCHAR
STARTCHAR 00F3
ENCODING 243
SWIDTH 571 0
DWIDTH 12 0
BBX 9 17 2 0
BITMAP
0400
0E00
1800
1000
0000
7F00
C300
8180
8180
8180
8180
8180
8180
8180
8180
C300
7F00
ENDCHAR
STARTCHAR 00F4
ENCODING 244
SWIDTH 571 0
DWIDTH 12 0
BBX 9 17 2 0
BITMAP
0800
1C00
3600
6200
0000
7F00
C300
8180
8180
8180
8180
8180
8180
8180
8180
C300
7F00
ENDCHAR
STARTCHAR 00F5
ENCODING 245
SWIDTH 571 0
DWIDTH 12 0
BBX 9 16 2 0
BITMAP
3200
7A00
4C00
0000
7F00
C300
8180
8180
8180
8180
8180
8180
8180
8180
C300
7F00
ENDCHAR
STARTCHAR 00F6
ENCODING 246
SWIDTH 571 0
DWIDTH 12 0
BBX 9 16 2 0
BITMAP
6600
6600
0000
0000
7F00
C300
8180
8180
8180
8180
8180
8180
8180
8180
C300
7F00
ENDCHAR
STARTCHAR 00F7
ENCODING 247
SWIDTH 571 0
DWIDTH 12 0
BBX 10 9 1 3
BITMAP
0C00
0C00
0000
0000
FFC0
0000
0000
0000
0C00
ENDCHAR
STARTCHAR 00F8
ENCODING 248
SWIDTH 571 0
DWIDTH 12 0
BBX 9 12 2 0
BITMAP
7F00
C300
8180
8380
8580
8980
9180
A180
E180
C180
C300
7F00
ENDCHAR
STARTCHAR 00F9
ENCODING 249
SWIDTH 571 0
DWIDTH 12 0
BBX 9 17 2 0
BITMAP
2000
3000
1800
0800
0000
8180
8180
8180
8180
8180
8180
8180
8180
8180
8180
C180
7F80
ENDCHAR
STARTCHAR 00FA
ENCODING 250
SWIDTH 571 0
DWIDTH 12 0
BBX 9 17 2 0
BITMAP
0400
0E00
1800
1000
0000
8180
8180
8180
8180
8180
8180
8180
8180
8180
8180
C180
7F80
ENDCHAR
STARTCHAR 00FB
ENCODING 251
SWIDTH 571 0
DWIDTH 12 0
BBX 9 17 2 0
BITMAP
0800
1C00
2400
6200
0000
8180
8180
8180
8180
8180
8180
8180
8180
8180
8180
C180
7F80
ENDCHAR
STARTCHAR 00FC
ENCODING 252
SWIDTH 571 0
DWIDTH 12 0
BBX 9 16 2 0
BITMAP
6600
6600
0000
0000
8180
8180
8180
8180
8180
8180
8180
8180
8180
8180
C180
7F80
ENDCHAR
STARTCHAR 00FD
ENCODING 253
SWIDTH 523 0
DWIDTH 11 0
BBX 11 22 0 -5
BITMAP
0200
0300
0400
0C00
0000
C060
60C0
60C0
60C0
2180
3180
3180
1100
1B00
1B00
0A00
0E00
0600
0400
0C00
0C00
0C00
ENDCHAR
STARTCHAR 00FE
ENCODING 254
SWIDTH 571 0
DWIDTH 12 0
BBX 9 21 2 -5
BITMAP
8000
8000
8000
8000
FE00
8300
8180
8180
8180
8180
8180
8180
8180
8180
8300
FE00
8000
8000
8000
8000
8000
ENDCHAR
STARTCHAR 00FF
ENCODING 255
SWIDTH 523 0
DWIDTH 11 0
BBX 11 21 0 -5
BITMAP
1100
1100
0000
0000
C060
60C0
60C0
60C0
2180
3180
3180
1100
1B00
1B00
0A00
0E00
0600
0400
0C00
0C00
0C00
ENDCHAR
STARTCHAR 0100
ENCODING 256
SWIDTH 619 0
DWIDTH 13 0
BBX 13 18 0 0
BITMAP
0F80
0000
0000
0700
0780
0D80
0D80
08C0
18C0
18C0
1060
3060
3FE0
3FE0
6030
6030
6010
C018
ENDCHAR
STARTCHAR 0101
ENCODING 257
SWIDTH 523 0
DWIDTH 11 0
BBX 9 15 1 0
BITMAP
3E00
0000
0000
7F00
0300
0180
0180
0180
7F80
E180
C180
C180
C180
E180
7F80
ENDCHAR
STARTCHAR 0102
ENCODING 258
SWIDTH 619 0
DWIDTH 13 0
BBX 13 19 0 0
BITMAP
0880
0880
0F80
0000
0700
0780
0D80
0D80
08C0
18C0
18C0
1060
3060
3FE0
3FE0
6030
6030
6010
C018
ENDCHAR
STARTCHAR 0103
ENCODING 259
SWIDTH 523 0
DWIDTH 11 0
BBX 9 17 1 0
BITMAP
2200
2200
3E00
0000
0000
7F00
0300
0180
0180
0180
7F80
E180
C180
C180
C180
E180
7F80
ENDCHAR
STARTCHAR 0104
ENCODING 260
SWIDTH 619 0
DWIDTH 13 0
BBX 13 19 0 -4
BITMAP
0700
0780
0D80
0D80
08C0
18C0
18C0
1060
3060
3FE0
3FE0
6030
6030
6010
C078
0040
0040
0040
0078
ENDCHAR
STARTCHAR 0105
ENCODING 261
SWIDTH 523 0
DWIDTH 11 0
BBX 9 16 1 -4
BITMAP
7F00
0300
0180
0180
0180
7F80
E180
C180
C180
C180
E180
7F80
0400
0400
0400
0780
ENDCHAR
STARTCHAR 0106
ENCODING 262
SWIDTH 619 0
DWIDTH 13 0
BBX 10 20 2 0
BITMAP
0200
0700
0C00
0800
0000
7F80
FFC0
C000
8000
8000
8000
8000
8000
8000
8000
8000
8000
C000
FFC0
7F80
ENDCHAR
STARTCHAR 0107
ENCODING 263
SWIDTH 523 0
DWIDTH 11 0
BBX 8 17 2 0
BITMAP
04
0C
18
10
00
7E
C1
80
80
80
80
80
80
80
80
C0
7F
ENDCHAR
STARTCHAR 010C
ENCODING 268
SWIDTH 619 0
DWIDTH 13 0
BBX 10 20 2 0
BITMAP
3100
1B00
0E00
0400
0000
7F80
FFC0
C000
8000
8000
8000
8000
8000
8000
8000
8000
8000
C000
FFC0
7F80
ENDCHAR
STARTCHAR 010D
ENCODING 269
SWIDTH 523 0
DWIDTH 11 0
BBX 8 17 2 0
BITMAP
42
24
18
10
00
7E
C1
80
80
80
80
80
80
80
80
C0
7F
ENDCHAR
STARTCHAR 010E
ENCODING 270
SWIDTH 666 0
DWIDTH 14 0
BBX 11 20 2 0
BITMAP
2300
1200
0C00
0800
0000
FF00
FFC0
C0C0
C060
C060
C060
C060
C060
C060
C060
C060
C060
C0C0
FFC0
FF00
ENDCHAR
STARTCHAR 010F
ENCODING 271
SWIDTH 619 0
DWIDTH 13 0
BBX 12 16 2 0
BITMAP
01B0
01A0
01A0
01A0
7F80
C180
8180
8180
8180
8180
8180
8180
8180
8180
C180
7F80
ENDCHAR
STARTCHAR 0110
ENCODING 272
SWIDTH 666 0
DWIDTH 14 0
BBX 13 15 0 0
BITMAP
3FE0
3FF0
3018
3018
3018
3018
3018
FF18
3018
3018
3018
3018
3018
3FF0
3FE0
ENDCHAR
STARTCHAR 0111
ENCODING 273
SWIDTH 571 0
DWIDTH 12 0
BBX 10 16 2 0
BITMAP
0180
1FC0
0180
0180
7F80
C180
8180
8180
8180
8180
8180
8180
8180
8180
C180
7F80
ENDCHAR
STARTCHAR 0112
ENCODING 274
SWIDTH 571 0
DWIDTH 12 0
BBX 9 18 2 0
BITMAP
3E00
0000
0000
FF80
FF80
C000
C000
C000
C000
FF80
FF80
C000
C000
C000
C000
C000
FF80
FF80
ENDCHAR
STARTCHAR 0113
ENCODING 275
SWIDTH 571 0
DWIDTH 12 0
BBX 9 15 2 0
BITMAP
7E00
0000
0000
7E00
C300
8100
8180
8180
FF80
8000
8000
8000
8000
C000
7F00
ENDCHAR
STARTCHAR 0116
ENCODING 278
SWIDTH 571 0
DWIDTH 12 0
BBX 9 19 2 0
BITMAP
0C00
0C00
0000
0000
FF80
FF80
C000
C000
C000
C000
FF80
FF80
C000
C000
C000
C000
C000
FF80
FF80
ENDCHAR
STARTCHAR 0117
ENCODING 279
SWIDTH 571 0
DWIDTH 12 0
BBX 9 16 2 0
BITMAP
1800
1800
0000
0000
7E00
C300
8100
8180
8180
FF80
8000
8000
8000
8000
C000
7F00
ENDCHAR
STARTCHAR 0118
ENCODING 280
SWIDTH 571 0
DWIDTH 12 0
BBX 9 19 2 -4
BITMAP
FF80
FF80
C000
C000
C000
C000
FF80
FF80
C000
C000
C000
C000
C000
FF80
FF80
0600
0600
0600
0380
ENDCHAR
STARTCHAR 0119
ENCODING 281
SWIDTH 571 0
DWIDTH 12 0
BBX 9 16 2 -4
BITMAP
7E00
C300
8100
8180
8180
FF80
8000
8000
8000
8000
C000
7F00
0800
0800
0800
0F00
ENDCHAR
STARTCHAR 011A
ENCODING 282
SWIDTH 571 0
DWIDTH 12 0
BBX 9 20 2 0
BITMAP
2300
3600
1C00
0800
0000
FF80
FF80
C000
C000
C000
C000
FF80
FF80
C000
C000
C000
C000
C000
FF80
FF80
ENDCHAR
STARTCHAR 011B
ENCODING 283
SWIDTH 571 0
DWIDTH 12 0
BBX 9 17 2 0
BITMAP
4200
2400
1800
0800
0000
7E00
C300
8100
8180
8180
FF80
8000
8000
8000
8000
C000
7F00
ENDCHAR
STARTCHAR 011E
ENCODING 286
SWIDTH 666 0
DWIDTH 14 0
BBX 11 19 2 0
BITMAP
1100
1100
1E00
0000
7FC0
FFC0
C000
8000
8000
8000
87E0
87E0
8060
8060
8060
8060
C060
FFE0
7FE0
ENDCHAR
STARTCHAR 011F
ENCODING 287
SWIDTH 571 0
DWIDTH 12 0
BBX 9 22 2 -5
BITMAP
6200
6200
3C00
0000
0000
7F80
C180
8180
8180
8180
8180
8180
8180
8180
8180
C180
7F80
0180
0180
0100
0300
FE00
ENDCHAR
STARTCHAR 0122
ENCODING 290
SWIDTH 666 0
DWIDTH 14 0
BBX 11 19 2 -4
BITMAP
7FC0
FFC0
C000
8000
8000
8000
87E0
87E0
8060
8060
8060
8060
C060
FFE0
7FE0
0000
0C00
0800
0800
ENDCHAR
STARTCHAR 0123
ENCODING 291
SWIDTH 571 0
DWIDTH 12 0
BBX 9 20 2 -5
BITMAP
0C00
0800
1800
7F80
C180
8180
8180
8180
8180
8180
8180
8180
8180
C180
7F80
0180
0180
0100
0300
FE00
ENDCHAR
STARTCHAR 012A
ENCODING 298
SWIDTH 285 0
DWIDTH 6 0
BBX 6 18 0 0
BITMAP
FC
00
00
30
30
30
30
30
30
30
30
30
30
30
30
30
30
30
ENDCHAR
STARTCHAR 012B
ENCODING 299
SWIDTH 238 0
DWIDTH 5 0
BBX 5 15 0 0
BITMAP
F8
00
00
20
20
20
20
20
20
20
20
20
20
20
20
ENDCHAR
STARTCHAR 012E
ENCODING 302
SWIDTH 285 0
DWIDTH 6 0
BBX 4 19 0 -4
BITMAP
30
30
30
30
30
30
30
30
30
30
30
30
30
30
70
C0
C0
C0
70
ENDCHAR
STARTCHAR 012F
ENCODING 303
SWIDTH 238 0
DWIDTH 5 0
BBX 4 20 0 -4
BITMAP
20
20
00
00
20
20
20
20
20
20
20
20
20
20
20
E0
80
80
80
F0
ENDCHAR
STARTCHAR 0130
ENCODING 304
SWIDTH 285 0
DWIDTH 6 0
BBX 2 19 2 0
BITMAP
C0
C0
00
00
C0
C0
C0
C0
C0
C0
C0
C0
C0
C0
C0
C0
C0
C0
C0
ENDCHAR
STARTCHAR 0131
ENCODING 305
SWIDTH 238 0
DWIDTH 5 0
BBX 1 12 2 0
BITMAP
80
80
80
80
80
80
80
80
80
80
80
80
ENDCHAR
STARTCHAR 0136
ENCODING 310
SWIDTH 619 0
DWIDTH 13 0
BBX 11 19 2 -4
BITMAP
C0C0
C180
C300
C600
CE00
CC00
D800
FC00
E600
C600
C300
C180
C180
C0C0
C0E0
0000
0C00
0800
1800
ENDCHAR
STARTCHAR 0137
ENCODING 311
SWIDTH 523 0
DWIDTH 11 0
BBX 9 20 2 -4
BITMAP
8000
8000
8000
8000
8300
8600
8C00
8C00
9800
B800
F800
CC00
8400
8600
8300
8380
0000
1800
1000
3000
ENDCHAR
STARTCHAR 0139
ENCODING 313
SWIDTH 523 0
DWIDTH 11 0
BBX 9 20 2 0
BITMAP
2000
6000
C000
8000
0000
C000
C000
C000
C000
C000
C000
C000
C000
C000
C000
C000
C000
C000
FF80
FF80
ENDCHAR
STARTCHAR 013A
ENCODING 314
SWIDTH 238 0
DWIDTH 5 0
BBX 4 21 1 0
BITMAP
20
30
40
80
00
40
40
40
40
40
40
40
40
40
40
40
40
40
40
60
30
ENDCHAR
STARTCHAR 013B
ENCODING 315
SWIDTH 523 0
DWIDTH 11 0
BBX 9 19 2 -4
BITMAP
C000
C000
C000
C000
C000
C000
C000
C000
C000
C000
C000
C000
C000
FF80
FF80
0000
1800
1800
1000
ENDCHAR
STARTCHAR 013C
ENCODING 316
SWIDTH 238 0
DWIDTH 5 0
BBX 3 20 2 -4
BITMAP
80
80
80
80
80
80
80
80
80
80
80
80
80
80
C0
60
00
C0
C0
80
ENDCHAR
STARTCHAR 013D
ENCODING 317
SWIDTH 523 0
DWIDTH 11 0
BBX 9 15 2 0
BITMAP
C400
C400
CC00
C800
C000
C000
C000
C000
C000
C000
C000
C000
C000
FF80
FF80
ENDCHAR
STARTCHAR 013E
ENCODING 318
SWIDTH 285 0
DWIDTH 6 0
BBX 5 16 2 0
BITMAP
98
90
90
B0
80
80
80
80
80
80
80
80
80
80
C0
60
ENDCHAR
STARTCHAR 0141
ENCODING 321
SWIDTH 523 0
DWIDTH 11 0
BBX 11 15 0 0
BITMAP
3000
3000
3000
3000
3000
3200
3E00
3800
7000
F000
3000
3000
3000
3FE0
3FE0
ENDCHAR
STARTCHAR 0142
ENCODING 322
SWIDTH 285 0
DWIDTH 6 0
BBX 6 16 0 0
BITMAP
20
20
20
20
20
20
2C
38
E0
A0
20
20
20
30
38
18
ENDCHAR
STARTCHAR 0143
ENCODING 323
SWIDTH 714 0
DWIDTH 15 0
BBX 11 20 2 0
BITMAP
0100
0300
0600
0C00
0000
C060
E060
E060
F060
D860
D860
CC60
C660
C660
C360
C360
C1E0
C0E0
C0E0
C060
ENDCHAR
STARTCHAR 0144
ENCODING 324
SWIDTH 571 0
DWIDTH 12 0
BBX 9 17 2 0
BITMAP
0400
0E00
1800
1000
0000
FE00
8300
8180
8180
8180
8180
8180
8180
8180
8180
8180
8180
ENDCHAR
STARTCHAR 0145
ENCODING 325
SWIDTH 714 0
DWIDTH 15 0
BBX 11 19 2 -4
BITMAP
C060
E060
E060
F060
D860
D860
CC60
C660
C660
C360
C360
C1E0
C0E0
C0E0
C060
0000
0400
0C00
0800
ENDCHAR
STARTCHAR 0146
ENCODING 326
SWIDTH 571 0
DWIDTH 12 0
BBX 9 16 2 -4
BITMAP
FE00
8300
8180
8180
8180
8180
8180
8180
8180
8180
8180
8180
0000
1800
1800
1000
ENDCHAR
STARTCHAR 0147
ENCODING 327
SWIDTH 714 0
DWIDTH 15 0
BBX 11 20 2 0
BITMAP
1180
1B00
0E00
0400
0000
C060
E060
E060
F060
D860
D860
CC60
C660
C660
C360
C360
C1E0
C0E0
C0E0
C060
ENDCHAR
STARTCHAR 0148
ENCODING 328
SWIDTH 571 0
DWIDTH 12 0
BBX 9 17 2 0
BITMAP
6200
3600
1C00
0800
0000
FE00
8300
8180
8180
8180
8180
8180
8180
8180
8180
8180
8180
ENDCHAR
STARTCHAR 014C
ENCODING 332
SWIDTH 714 0
DWIDTH 15 0
BBX 11 18 2 0
BITMAP
1F00
0000
0000
7FC0
FFE0
C060
8060
8060
8060
8060
8060
8060
8060
8060
8060
C060
FFE0
7FC0
ENDCHAR
STARTCHAR 014D
ENCODING 333
SWIDTH 571 0
DWIDTH 12 0
BBX 9 15 2 0
BITMAP
7E00
0000
0000
7F00
C300
8180
8180
8180
8180
8180
8180
8180
8180
C300
7F00
ENDCHAR
STARTCHAR 0150
ENCODING 336
SWIDTH 714 0
DWIDTH 15 0
BBX 11 20 2 0
BITMAP
04C0
0D80
1900
1200
0000
7FC0
FFE0
C060
8060
8060
8060
8060
8060
8060
8060
8060
8060
C060
FFE0
7FC0
ENDCHAR
STARTCHAR 0151
ENCODING 337
SWIDTH 571 0
DWIDTH 12 0
BBX 9 17 2 0
BITMAP
1100
1B00
3600
6400
0000
7F00
C300
8180
8180
8180
8180
8180
8180
8180
8180
C300
7F00
ENDCHAR
STARTCHAR 0152
ENCODING 338
SWIDTH 952 0
DWIDTH 20 0
BBX 17 15 2 0
BITMAP
7FFF80
FFFF80
C0C000
80C000
80C000
80C000
80FF80
80FF80
80C000
80C000
80C000
80C000
C0C000
FFFF80
7FFF80
ENDCHAR
STARTCHAR 0153
ENCODING 339
SWIDTH 904 0
DWIDTH 19 0
BBX 16 12 2 0
BITMAP
7EFE
C3C6
8183
8183
8183
81FF
8180
8180
8180
8180
C3C0
7EFE
ENDCHAR
STARTCHAR 0154
ENCODING 340
SWIDTH 619 0
DWIDTH 13 0
BBX 10 20 2 0
BITMAP
0200
0600
0C00
1800
0000
FF80
FFC0
C0C0
C0C0
C0C0
C0C0
C0C0
FFC0
FF80
C300
C300
C180
C180
C0C0
C0C0
ENDCHAR
STARTCHAR 0155
ENCODING 341
SWIDTH 380 0
DWIDTH 8 0
BBX 5 17 2 0
BITMAP
10
38
20
40
00
F8
C0
80
80
80
80
80
80
80
80
80
80
ENDCHAR
STARTCHAR 0156
ENCODING 342
SWIDTH 619 0
DWIDTH 13 0
BBX 10 19 2 -4
BITMAP
FF80
FFC0
C0C0
C0C0
C0C0
C0C0
C0C0
FFC0
FF80
C300
C300
C180
C180
C0C0
C0C0
0000
0C00
1800
1800
ENDCHAR
STARTCHAR 0157
ENCODING 343
SWIDTH 380 0
DWIDTH 8 0
BBX 6 16 1 -4
BITMAP
7C
60
40
40
40
40
40
40
40
40
40
40
00
40
C0
80
ENDCHAR
STARTCHAR 0158
ENCODING 344
SWIDTH 619 0
DWIDTH 13 0
BBX 10 20 2 0
BITMAP
2300
3600
1C00
0800
0000
FF80
FFC0
C0C0
C0C0
C0C0
C0C0
C0C0
FFC0
FF80
C300
C300
C180
C180
C0C0
C0C0
ENDCHAR
STARTCHAR 0159
ENCODING 345
SWIDTH 380 0
DWIDTH 8 0
BBX 6 17 1 0
BITMAP
C4
6C
38
10
00
7C
60
40
40
40
40
40
40
40
40
40
40
ENDCHAR
STARTCHAR 015A
ENCODING 346
SWIDTH 571 0
DWIDTH 12 0
BBX 10 20 1 0
BITMAP
0200
0700
0C00
0800
0000
7F80
7FC0
C000
C000
C000
C000
7800
3F80
01C0
00C0
00C0
00C0
00C0
FFC0
7F80
ENDCHAR
STARTCHAR 015B
ENCODING 347
SWIDTH 523 0
DWIDTH 11 0
BBX 8 17 1 0
BITMAP
04
0E
18
10
00
7F
60
C0
C0
C0
7C
0F
03
01
03
07
FE
ENDCHAR
STARTCHAR 015E
ENCODING 350
SWIDTH 571 0
DWIDTH 12 0
BBX 10 19 1 -4
BITMAP
7F80
7FC0
C000
C000
C000
C000
7800
3F80
01C0
00C0
00C0
00C0
00C0
FFC0
7F80
0200
0200
0200
1C00
ENDCHAR
STARTCHAR 015F
ENCODING 351
SWIDTH 523 0
DWIDTH 11 0
BBX 8 16 1 -4
BITMAP
7F
60
C0
C0
C0
7C
0F
03
01
03
07
FE
04
04
04
3C
ENDCHAR
STARTCHAR 0160
ENCODING 352
SWIDTH 571 0
DWIDTH 12 0
BBX 10 20 1 0
BITMAP
3100
1200
0E00
0400
0000
7F80
7FC0
C000
C000
C000
C000
7800
3F80
01C0
00C0
00C0
00C0
00C0
FFC0
7F80
ENDCHAR
STARTCHAR 0161
ENCODING 353
SWIDTH 523 0
DWIDTH 11 0
BBX 8 17 1 0
BITMAP
62
36
1C
08
00
7F
60
C0
C0
C0
7C
0F
03
01
03
07
FE
ENDCHAR
STARTCHAR 0162
ENCODING 354
SWIDTH 571 0
DWIDTH 12 0
BBX 12 19 0 -4
BITMAP
FFF0
FFF0
0600
0600
0600
0600
0600
0600
0600
0600
0600
0600
0600
0600
0700
0100
0100
0100
0F00
ENDCHAR
STARTCHAR 0163
ENCODING 355
SWIDTH 380 0
DWIDTH 8 0
BBX 5 19 2 -4
BITMAP
80
80
80
F8
80
80
80
80
80
80
80
80
80
C0
78
18
18
10
F0
ENDCHAR
STARTCHAR 0164
ENCODING 356
SWIDTH 571 0
DWIDTH 12 0
BBX 12 20 0 0
BITMAP
1880
0D80
0700
0200
0000
FFF0
FFF0
0600
0600
0600
0600
0600
0600
0600
0600
0600
0600
0600
0600
0600
ENDCHAR
STARTCHAR 0165
ENCODING 357
SWIDTH 380 0
DWIDTH 8 0
BBX 5 16 2 0
BITMAP
18
98
90
90
F8
80
80
80
80
80
80
80
80
80
C0
78
ENDCHAR
STARTCHAR 016A
ENCODING 362
SWIDTH 666 0
DWIDTH 14 0
BBX 11 18 2 0
BITMAP
3F00
0000
0000
C060
C060
C060
C060
C060
C060
C060
C060
C060
C060
C060
C060
C060
FFC0
7F80
ENDCHAR
STARTCHAR 016B
ENCODING 363
SWIDTH 571 0
DWIDTH 12 0
BBX 9 15 2 0
BITMAP
7E00
0000
0000
8180
8180
8180
8180
8180
8180
8180
8180
8180
8180
C180
7F80
ENDCHAR
STARTCHAR 016E
ENCODING 366
SWIDTH 666 0
DWIDTH 14 0
BBX 11 20 2 0
BITMAP
1E00
1200
1200
1E00
0000
C060
C060
C060
C060
C060
C060
C060
C060
C060
C060
C060
C060
C060
FFC0
7F80
ENDCHAR
STARTCHAR 016F
ENCODING 367
SWIDTH 571 0
DWIDTH 12 0
BBX 9 17 2 0
BITMAP
3C00
2400
2400
3C00
0000
8180
8180
8180
8180
8180
8180
8180
8180
8180
8180
C180
7F80
ENDCHAR
STARTCHAR 0170
ENCODING 368
SWIDTH 666 0
DWIDTH 14 0
BBX 11 20 2 0
BITMAP
0880
0D80
1900
1200
0000
C060
C060
C060
C060
C060
C060
C060
C060
C060
C060
C060
C060
C060
FFC0
7F80
ENDCHAR
STARTCHAR 0171
ENCODING 369
SWIDTH 571 0
DWIDTH 12 0
BBX 9 17 2 0
BITMAP
1100
1B00
3600
6400
0000
8180
8180
8180
8180
8180
8180
8180
8180
8180
8180
C180
7F80
ENDCHAR
STARTCHAR 0172
ENCODING 370
SWIDTH 666 0
DWIDTH 14 0
BBX 11 19 2 -4
BITMAP
C060
C060
C060
C060
C060
C060
C060
C060
C060
C060
C060
C060
C060
FFC0
7F80
0400
0C00
0400
0780
ENDCHAR
STARTCHAR 0173
ENCODING 371
SWIDTH 571 0
DWIDTH 12 0
BBX 9 16 2 -4
BITMAP
8180
8180
8180
8180
8180
8180
8180
8180
8180
8180
C180
7F80
0400
0400
0400
0780
ENDCHAR
STARTCHAR 0178
ENCODING 376
SWIDTH 571 0
DWIDTH 12 0
BBX 12 19 0 0
BITMAP
1980
1980
0000
0000
C030
6060
2060
30C0
10C0
1980
0D80
0F00
0600
0600
0600
0600
0600
0600
0600
ENDCHAR
STARTCHAR 0179
ENCODING 377
SWIDTH 619 0
DWIDTH 13 0
BBX 11 20 1 0
BITMAP
0200
0700
0400
0800
0000
FFC0
FFC0
00C0
0180
0300
0300
0600
0C00
1C00
1800
3000
7000
6000
FFE0
FFE0
ENDCHAR
STARTCHAR 017A
ENCODING 378
SWIDTH 523 0
DWIDTH 11 0
BBX 9 17 1 0
BITMAP
0400
0E00
0800
1000
0000
FF00
0300
0300
0600
0C00
0C00
1800
3000
3000
6000
C000
FF80
ENDCHAR
STARTCHAR 017B
ENCODING 379
SWIDTH 619 0
DWIDTH 13 0
BBX 11 19 1 0
BITMAP
0C00
0C00
0000
0000
FFC0
FFC0
00C0
0180
0300
0300
0600
0C00
1C00
1800
3000
7000
6000
FFE0
FFE0
ENDCHAR
STARTCHAR 017C
ENCODING 380
SWIDTH 523 0
DWIDTH 11 0
BBX 9 16 1 0
BITMAP
1800
1800
0000
0000
FF00
0300
0300
0600
0C00
0C00
1800
3000
3000
6000
C000
FF80
ENDCHAR
STARTCHAR 017D
ENCODING 381
SWIDTH 619 0
DWIDTH 13 0
BBX 11 20 1 0
BITMAP
3100
1B00
0E00
0400
0000
FFC0
FFC0
00C0
0180
0300
0300
0600
0C00
1C00
1800
3000
7000
6000
FFE0
FFE0
ENDCHAR
STARTCHAR 017E
ENCODING 382
SWIDTH 523 0
DWIDTH 11 0
BBX 9 17 1 0
BITMAP
6200
3600
1C00
0800
0000
FF00
0300
0300
0600
0C00
0C00
1800
3000
3000
6000
C000
FF80
ENDCHAR
STARTCHAR 0192
ENCODING 402
SWIDTH 571 0
DWIDTH 12 0
BBX 9 19 1 -3
BITMAP
0F80
1C00
1800
1800
1F80
1800
1800
1800
1800
1800
1800
1800
1800
1800
1800
1800
1800
3000
E000
ENDCHAR
STARTCHAR 0218
ENCODING 536
SWIDTH 571 0
DWIDTH 12 0
BBX 10 19 1 -4
BITMAP
7F80
7FC0
C000
C000
C000
C000
7800
3F80
01C0
00C0
00C0
00C0
00C0
FFC0
7F80
0000
0C00
0800
0800
ENDCHAR
STARTCHAR 0219
ENCODING 537
SWIDTH 523 0
DWIDTH 11 0
BBX 8 16 1 -4
BITMAP
7F
60
C0
C0
C0
7C
0F
03
01
03
07
FE
00
18
18
10
ENDCHAR
STARTCHAR 021A
ENCODING 538
SWIDTH 571 0
DWIDTH 12 0
BBX 12 19 0 -4
BITMAP
FFF0
FFF0
0600
0600
0600
0600
0600
0600
0600
0600
0600
0600
0600
0600
0600
0000
0600
0600
0400
ENDCHAR
STARTCHAR 021B
ENCODING 539
SWIDTH 380 0
DWIDTH 8 0
BBX 5 19 2 -4
BITMAP
80
80
80
F8
80
80
80
80
80
80
80
80
80
C0
78
00
30
20
60
ENDCHAR
STARTCHAR 0237
ENCODING 567
SWIDTH 238 0
DWIDTH 5 0
BBX 3 17 0 -5
BITMAP
20
20
20
20
20
20
20
20
20
20
20
20
20
20
20
E0
C0
ENDCHAR
STARTCHAR 02C6
ENCODING 710
SWIDTH 523 0
DWIDTH 11 0
BBX 6 4 2 13
BITMAP
10
38
6C
C4
ENDCHAR
STARTCHAR 02C7
ENCODING 711
SWIDTH 523 0
DWIDTH 11 0
BBX 6 4 2 13
BITMAP
C4
6C
38
10
ENDCHAR
STARTCHAR 02C9
ENCODING 713
SWIDTH 523 0
DWIDTH 11 0
BBX 5 1 3 14
BITMAP
F8
ENDCHAR
STARTCHAR 02D8
ENCODING 728
SWIDTH 523 0
DWIDTH 11 0
BBX 5 3 3 14
BITMAP
88
88
F8
ENDCHAR
STARTCHAR 02D9
ENCODING 729
SWIDTH 523 0
DWIDTH 11 0
BBX 2 2 4 14
BITMAP
C0
C0
ENDCHAR
STARTCHAR 02DA
ENCODING 730
SWIDTH 523 0
DWIDTH 11 0
BBX 4 4 3 13
BITMAP
F0
90
90
F0
ENDCHAR
STARTCHAR 02DB
ENCODING 731
SWIDTH 523 0
DWIDTH 11 0
BBX 4 5 4 -4
BITMAP
C0
80
80
80
F0
ENDCHAR
STARTCHAR 02DC
ENCODING 732
SWIDTH 523 0
DWIDTH 11 0
BBX 7 3 2 13
BITMAP
66
D4
98
ENDCHAR
STARTCHAR 02DD
ENCODING 733
SWIDTH 523 0
DWIDTH 11 0
BBX 7 4 3 13
BITMAP
26
6C
C8
90
ENDCHAR
STARTCHAR 0300
ENCODING 768
SWIDTH 0 0
DWIDTH 0 0
BBX 3 4 -8 13
BITMAP
80
C0
60
20
ENDCHAR
STARTCHAR 0301
ENCODING 769
SWIDTH 0 0
DWIDTH 0 0
BBX 3 4 -7 13
BITMAP
20
60
C0
80
ENDCHAR
STARTCHAR 0302
ENCODING 770
SWIDTH 0 0
DWIDTH 0 0
BBX 6 4 -9 13
BITMAP
20
30
48
84
ENDCHAR
STARTCHAR 0303
ENCODING 771
SWIDTH 0 0
DWIDTH 0 0
BBX 6 3 -9 13
BITMAP
64
FC
98
ENDCHAR
STARTCHAR 0304
ENCODING 772
SWIDTH 0 0
DWIDTH 0 0
BBX 6 1 -9 14
BITMAP
FC
ENDCHAR
STARTCHAR 0306
ENCODING 774
SWIDTH 0 0
DWIDTH 0 0
BBX 6 3 -9 14
BITMAP
CC
CC
78
ENDCHAR
STARTCHAR 0307
ENCODING 775
SWIDTH 0 0
DWIDTH 0 0
BBX 2 2 -7 14
BITMAP
C0
C0
ENDCHAR
STARTCHAR 0308
ENCODING 776
SWIDTH 0 0
DWIDTH 0 0
BBX 6 2 -9 14
BITMAP
CC
CC
ENDCHAR
STARTCHAR 030A
ENCODING 778
SWIDTH 0 0
DWIDTH 0 0
BBX 4 4 -8 13
BITMAP
F0
90
90
F0
ENDCHAR
STARTCHAR 030B
ENCODING 779
SWIDTH 0 0
DWIDTH 0 0
BBX 7 4 -9 13
BITMAP
22
36
4C
C8
ENDCHAR
STARTCHAR 030C
ENCODING 780
SWIDTH 0 0
DWIDTH 0 0
BBX 6 4 -9 13
BITMAP
84
48
30
20
ENDCHAR
STARTCHAR 0326
ENCODING 806
SWIDTH 0 0
DWIDTH 0 0
BBX 2 3 -7 -4
BITMAP
C0
80
80
ENDCHAR
STARTCHAR 0327
ENCODING 807
SWIDTH 0 0
DWIDTH 0 0
BBX 4 5 -8 -4
BITMAP
30
30
30
30
E0
ENDCHAR
STARTCHAR 0328
ENCODING 808
SWIDTH 0 0
DWIDTH 0 0
BBX 4 5 -8 -4
BITMAP
60
C0
C0
C0
70
ENDCHAR
STARTCHAR 03C0
ENCODING 960
SWIDTH 571 0
DWIDTH 12 0
BBX 9 12 2 0
BITMAP
FF80
8180
8180
8180
8180
8180
8180
8180
8180
8180
8180
8180
ENDCHAR
STARTCHAR 1E9E
ENCODING 7838
SWIDTH 666 0
DWIDTH 14 0
BBX 11 15 2 0
BITMAP
7FC0
FFC0
C180
C300
C300
C600
CF80
CFE0
C060
C060
C060
C060
C060
CFE0
CFC0
ENDCHAR
STARTCHAR 2013
ENCODING 8211
SWIDTH 571 0
DWIDTH 12 0
BBX 10 1 1 6
BITMAP
FFC0
ENDCHAR
STARTCHAR 2014
ENCODING 8212
SWIDTH 1000 0
DWIDTH 21 0
BBX 19 1 1 6
BITMAP
FFFFE0
ENDCHAR
STARTCHAR 2018
ENCODING 8216
SWIDTH 238 0
DWIDTH 5 0
BBX 3 5 1 11
BITMAP
20
20
60
60
C0
ENDCHAR
STARTCHAR 2019
ENCODING 8217
SWIDTH 238 0
DWIDTH 5 0
BBX 3 5 1 11
BITMAP
60
60
40
40
C0
ENDCHAR
STARTCHAR 201A
ENCODING 8218
SWIDTH 238 0
DWIDTH 5 0
BBX 3 5 1 -2
BITMAP
60
40
C0
C0
80
ENDCHAR
STARTCHAR 201C
ENCODING 8220
SWIDTH 428 0
DWIDTH 9 0
BBX 7 5 1 11
BITMAP
22
26
66
64
CC
ENDCHAR
STARTCHAR 201D
ENCODING 8221
SWIDTH 428 0
DWIDTH 9 0
BBX 7 5 1 11
BITMAP
66
66
44
4C
C8
ENDCHAR
STARTCHAR 201E
ENCODING 8222
SWIDTH 428 0
DWIDTH 9 0
BBX 7 5 1 -2
BITMAP
66
4C
CC
C8
98
ENDCHAR
STARTCHAR 2020
ENCODING 8224
SWIDTH 476 0
DWIDTH 10 0
BBX 8 17 1 -2
BITMAP
18
18
18
18
18
FF
18
18
18
18
18
18
18
18
18
18
18
ENDCHAR
STARTCHAR 2021
ENCODING 8225
SWIDTH 476 0
DWIDTH 10 0
BBX 8 17 1 -2
BITMAP
18
18
18
18
18
FF
18
18
18
18
18
FF
18
18
18
18
18
ENDCHAR
STARTCHAR 2022
ENCODING 8226
SWIDTH 380 0
DWIDTH 8 0
BBX 4 4 2 6
BITMAP
F0
F0
F0
F0
ENDCHAR
STARTCHAR 2026
ENCODING 8230
SWIDTH 761 0
DWIDTH 16 0
BBX 13 3 2 0
BITMAP
C618
C618
C618
ENDCHAR
STARTCHAR 2030
ENCODING 8240
SWIDTH 1190 0
DWIDTH 25 0
BBX 24 15 1 0
BITMAP
F81000
8C3000
8C2000
8C6000
8C4000
8CC000
8C9F3E
8DB123
F93123
033123
023123
063123
043123
0C3123
081F3E
ENDCHAR
STARTCHAR 2039
ENCODING 8249
SWIDTH 285 0
DWIDTH 6 0
BBX 4 9 1 2
BITMAP
10
30
60
C0
C0
C0
60
30
10
ENDCHAR
STARTCHAR 203A
ENCODING 8250
SWIDTH 285 0
DWIDTH 6 0
BBX 5 9 1 2
BITMAP
80
C0
60
30
18
30
60
C0
80
ENDCHAR
STARTCHAR 2044
ENCODING 8260
SWIDTH 142 0
DWIDTH 3 0
BBX 9 15 -3 0
BITMAP
0180
0100
0300
0200
0600
0400
0C00
0800
1800
1000
3000
2000
6000
4000
C000
ENDCHAR
STARTCHAR 2070
ENCODING 8304
SWIDTH 380 0
DWIDTH 8 0
BBX 6 9 1 6
BITMAP
F8
8C
8C
8C
8C
8C
8C
8C
F8
ENDCHAR
STARTCHAR 2074
ENCODING 8308
SWIDTH 380 0
DWIDTH 8 0
BBX 6 9 1 6
BITMAP
30
20
60
4C
4C
CC
FC
0C
0C
ENDCHAR
STARTCHAR 2080
ENCODING 8320
SWIDTH 380 0
DWIDTH 8 0
BBX 6 9 1 0
BITMAP
F8
8C
8C
8C
8C
8C
8C
8C
F8
ENDCHAR
STARTCHAR 2081
ENCODING 8321
SWIDTH 380 0
DWIDTH 8 0
BBX 6 9 1 0
BITMAP
70
30
30
30
30
30
30
30
FC
ENDCHAR
STARTCHAR 2082
ENCODING 8322
SWIDTH 380 0
DWIDTH 8 0
BBX 6 9 1 0
BITMAP
F8
0C
0C
0C
78
C0
80
80
FC
ENDCHAR
STARTCHAR 2083
ENCODING 8323
SWIDTH 380 0
DWIDTH 8 0
BBX 6 9 1 0
BITMAP
F8
0C
0C
0C
78
0C
0C
0C
F8
ENDCHAR
STARTCHAR 2084
ENCODING 8324
SWIDTH 380 0
DWIDTH 8 0
BBX 6 9 1 0
BITMAP
30
20
60
4C
4C
CC
FC
0C
0C
ENDCHAR
STARTCHAR 20AC
ENCODING 8364
SWIDTH 571 0
DWIDTH 12 0
BBX 10 15 1 0
BITMAP
3FC0
3FC0
6000
6000
6000
6000
FF80
6000
FF00
6000
6000
6000
6000
3FC0
3FC0
ENDCHAR
STARTCHAR 20BA
ENCODING 8378
SWIDTH 571 0
DWIDTH 12 0
BBX 11 15 0 0
BITMAP
1000
1000
1080
1700
1C00
F080
9700
1C00
F060
9060
1060
1060
10C0
1FC0
1F00
ENDCHAR
STARTCHAR 20BD
ENCODING 8381
SWIDTH 571 0
DWIDTH 12 0
BBX 10 15 1 0
BITMAP
7F80
7FC0
60C0
60C0
60C0
60C0
61C0
FF80
6000
FE00
6000
6000
6000
6000
6000
ENDCHAR
STARTCHAR 2113
ENCODING 8467
SWIDTH 238 0
DWIDTH 5 0
BBX 3 16 2 0
BITMAP
80
80
80
80
80
80
80
80
80
80
80
80
80
80
C0
60
ENDCHAR
STARTCHAR 2122
ENCODING 8482
SWIDTH 761 0
DWIDTH 16 0
BBX 15 8 0 7
BITMAP
FD86
11C6
11C6
11EA
11AA
11BA
1192
1182
ENDCHAR
STARTCHAR 2126
ENCODING 8486
SWIDTH 714 0
DWIDTH 15 0
BBX 12 15 1 0
BITMAP
3FE0
7FF0
6030
4030
4030
4030
4030
4030
4030
4030
6030
3060
30C0
F8F0
F8F0
ENDCHAR
STARTCHAR 212E
ENCODING 8494
SWIDTH 857 0
DWIDTH 18 0
BBX 16 15 1 0
BITMAP
07E0
1818
3004
6006
6007
6007
E007
FFFF
E000
6000
6000
6000
3004
1818
07E0
ENDCHAR
STARTCHAR 2202
ENCODING 8706
SWIDTH 571 0
DWIDTH 12 0
BBX 9 16 2 0
BITMAP
7C00
8F00
0300
0100
0180
0180
7F80
C180
8180
8180
8180
8180
8180
8100
C300
7E00
ENDCHAR
STARTCHAR 2206
ENCODING 8710
SWIDTH 619 0
DWIDTH 13 0
BBX 13 15 0 0
BITMAP
0700
0780
0D80
0C80
0CC0
18C0
1840
1860
3060
3020
3030
6030
6010
7FF8
FFF8
ENDCHAR
STARTCHAR 220F
ENCODING 8719
SWIDTH 714 0
DWIDTH 15 0
BBX 11 17 2 -2
BITMAP
FFE0
FFE0
C060
C060
C060
C060
C060
C060
C060
C060
C060
C060
C060
C060
C060
C060
C060
ENDCHAR
STARTCHAR 2211
ENCODING 8721
SWIDTH 571 0
DWIDTH 12 0
BBX 10 17 1 -2
BITMAP
FFC0
FFC0
6000
6000
3000
1800
0C00
0C00
0600
0C00
0C00
1800
3000
6000
6000
FFC0
FFC0
ENDCHAR
STARTCHAR 2212
ENCODING 8722
SWIDTH 571 0
DWIDTH 12 0
BBX 10 1 1 7
BITMAP
FFC0
ENDCHAR
STARTCHAR 2215
ENCODING 8725
SWIDTH 142 0
DWIDTH 3 0
BBX 9 15 -3 0
BITMAP
0180
0100
0300
0200
0600
0400
0C00
0800
1800
1000
3000
2000
6000
4000
C000
ENDCHAR
STARTCHAR 2219
ENCODING 8729
SWIDTH 238 0
DWIDTH 5 0
BBX 2 3 2 6
BITMAP
C0
C0
C0
ENDCHAR
STARTCHAR 221A
ENCODING 8730
SWIDTH 571 0
DWIDTH 12 0
BBX 12 17 0 0
BITMAP
0020
0030
0030
0020
0060
0060
0040
00C0
0080
F080
3180
1100
1900
0B00
0E00
0E00
0600
ENDCHAR
STARTCHAR 221E
ENCODING 8734
SWIDTH 619 0
DWIDTH 13 0
BBX 11 7 1 4
BITMAP
FBC0
8420
8420
8420
8420
8420
FBC0
ENDCHAR
STARTCHAR 222B
ENCODING 8747
SWIDTH 428 0
DWIDTH 9 0
BBX 8 21 0 -5
BITMAP
07
0C
08
08
08
08
08
08
08
08
08
08
08
08
08
08
08
08
08
B8
70
ENDCHAR
STARTCHAR 2248
ENCODING 8776
SWIDTH 571 0
DWIDTH 12 0
BBX 10 8 1 3
BITMAP
3840
7CC0
C780
4700
3840
7CC0
C780
4700
ENDCHAR
STARTCHAR 2260
ENCODING 8800
SWIDTH 571 0
DWIDTH 12 0
BBX 10 12 1 1
BITMAP
0100
0100
0300
FFC0
0600
0400
0C00
0800
FFC0
1000
3000
2000
ENDCHAR
STARTCHAR 2264
ENCODING 8804
SWIDTH 571 0
DWIDTH 12 0
BBX 10 13 1 0
BITMAP
0040
01C0
0700
1C00
7000
C000
7000
1C00
0700
01C0
0040
0000
FFC0
ENDCHAR
STARTCHAR 2265
ENCODING 8805
SWIDTH 571 0
DWIDTH 12 0
BBX 10 13 1 0
BITMAP
8000
E000
3800
0E00
0380
00C0
0380
0E00
3800
E000
8000
0000
FFC0
ENDCHAR
STARTCHAR 25CA
ENCODING 9674
SWIDTH 571 0
DWIDTH 12 0
BBX 10 15 1 0
BITMAP
0C00
1E00
1200
3300
2100
6180
4080
C0C0
4080
6180
2100
3300
1200
1E00
0C00
ENDCHAR
STARTCHAR F000
ENCODING 61440
SWIDTH 714 0
DWIDTH 15 0
BBX 13 11 1 2
BITMAP
0200
0600
0700
0F00
0F80
1FC0
1FC0
3FE0
7FE0
7FF0
FFF8
ENDCHAR
STARTCHAR FB01
ENCODING 64257
SWIDTH 619 0
DWIDTH 13 0
BBX 9 16 2 0
BITMAP
7880
C480
8000
8000
F880
8080
8080
8080
8080
8080
8080
8080
8080
8080
8080
8080
ENDCHAR
STARTCHAR FB02
ENCODING 64258
SWIDTH 619 0
DWIDTH 13 0
BBX 11 16 2 0
BITMAP
7880
C480
8080
8080
F880
8080
8080
8080
8080
8080
8080
8080
8080
8080
80C0
8060
ENDCHAR
ENDFONT
